<mxfile host="app.diagrams.net" modified="2022-01-21T12:08:39.143Z" agent="5.0 (Windows NT 10.0; Win64; x64) AppleWebKit/537.36 (KHTML, like Gecko) Chrome/92.0.4700.1 Iron Safari/537.36" etag="1zeHu-8jJH1xM9P9C9HC" version="16.4.3" type="github">
  <diagram id="u8dx3E7wF-88y7lnDWV-" name="Page-1">
    <mxGraphModel dx="1609" dy="1587" grid="1" gridSize="10" guides="1" tooltips="1" connect="1" arrows="1" fold="1" page="1" pageScale="1" pageWidth="827" pageHeight="1169" math="0" shadow="0">
      <root>
        <mxCell id="0" />
        <mxCell id="1" parent="0" />
        <mxCell id="R5GsELpKaSpSeacHpWFY-6" style="rounded=0;orthogonalLoop=1;jettySize=auto;html=1;exitX=0.5;exitY=1;exitDx=0;exitDy=0;entryX=0;entryY=0;entryDx=0;entryDy=0;strokeWidth=4;" edge="1" parent="1" source="R5GsELpKaSpSeacHpWFY-1" target="R5GsELpKaSpSeacHpWFY-4">
          <mxGeometry relative="1" as="geometry" />
        </mxCell>
        <mxCell id="R5GsELpKaSpSeacHpWFY-14" value="1" style="edgeLabel;html=1;align=center;verticalAlign=middle;resizable=0;points=[];fontSize=32;fontColor=none;" vertex="1" connectable="0" parent="R5GsELpKaSpSeacHpWFY-6">
          <mxGeometry x="-0.3086" y="3" relative="1" as="geometry">
            <mxPoint x="-1" as="offset" />
          </mxGeometry>
        </mxCell>
        <mxCell id="R5GsELpKaSpSeacHpWFY-1" value="&lt;font style=&quot;font-size: 42px&quot;&gt;a&lt;/font&gt;" style="ellipse;whiteSpace=wrap;html=1;aspect=fixed;" vertex="1" parent="1">
          <mxGeometry x="-40" y="160" width="80" height="80" as="geometry" />
        </mxCell>
        <mxCell id="R5GsELpKaSpSeacHpWFY-7" style="edgeStyle=none;rounded=0;orthogonalLoop=1;jettySize=auto;html=1;exitX=0;exitY=1;exitDx=0;exitDy=0;entryX=1;entryY=0;entryDx=0;entryDy=0;strokeWidth=4;" edge="1" parent="1" source="R5GsELpKaSpSeacHpWFY-2" target="R5GsELpKaSpSeacHpWFY-4">
          <mxGeometry relative="1" as="geometry" />
        </mxCell>
        <mxCell id="R5GsELpKaSpSeacHpWFY-16" value="1" style="edgeLabel;html=1;align=center;verticalAlign=middle;resizable=0;points=[];fontSize=32;fontColor=none;" vertex="1" connectable="0" parent="R5GsELpKaSpSeacHpWFY-7">
          <mxGeometry x="-0.1479" y="-2" relative="1" as="geometry">
            <mxPoint as="offset" />
          </mxGeometry>
        </mxCell>
        <mxCell id="R5GsELpKaSpSeacHpWFY-8" style="edgeStyle=none;rounded=0;orthogonalLoop=1;jettySize=auto;html=1;exitX=1;exitY=1;exitDx=0;exitDy=0;entryX=0;entryY=0;entryDx=0;entryDy=0;strokeWidth=4;" edge="1" parent="1" source="R5GsELpKaSpSeacHpWFY-2" target="R5GsELpKaSpSeacHpWFY-5">
          <mxGeometry relative="1" as="geometry" />
        </mxCell>
        <mxCell id="R5GsELpKaSpSeacHpWFY-15" value="1" style="edgeLabel;html=1;align=center;verticalAlign=middle;resizable=0;points=[];fontSize=32;fontColor=none;" vertex="1" connectable="0" parent="R5GsELpKaSpSeacHpWFY-8">
          <mxGeometry x="-0.2426" y="3" relative="1" as="geometry">
            <mxPoint as="offset" />
          </mxGeometry>
        </mxCell>
        <mxCell id="R5GsELpKaSpSeacHpWFY-2" value="&lt;font style=&quot;font-size: 42px&quot;&gt;b&lt;/font&gt;" style="ellipse;whiteSpace=wrap;html=1;aspect=fixed;" vertex="1" parent="1">
          <mxGeometry x="160" y="160" width="80" height="80" as="geometry" />
        </mxCell>
        <mxCell id="R5GsELpKaSpSeacHpWFY-9" style="edgeStyle=none;rounded=0;orthogonalLoop=1;jettySize=auto;html=1;exitX=0;exitY=1;exitDx=0;exitDy=0;entryX=0.954;entryY=0.242;entryDx=0;entryDy=0;strokeWidth=4;entryPerimeter=0;" edge="1" parent="1" source="R5GsELpKaSpSeacHpWFY-3" target="R5GsELpKaSpSeacHpWFY-4">
          <mxGeometry relative="1" as="geometry" />
        </mxCell>
        <mxCell id="R5GsELpKaSpSeacHpWFY-17" value="1" style="edgeLabel;html=1;align=center;verticalAlign=middle;resizable=0;points=[];fontSize=32;fontColor=none;" vertex="1" connectable="0" parent="R5GsELpKaSpSeacHpWFY-9">
          <mxGeometry x="-0.1908" y="5" relative="1" as="geometry">
            <mxPoint as="offset" />
          </mxGeometry>
        </mxCell>
        <mxCell id="R5GsELpKaSpSeacHpWFY-3" value="&lt;font style=&quot;font-size: 42px&quot;&gt;c&lt;/font&gt;" style="ellipse;whiteSpace=wrap;html=1;aspect=fixed;" vertex="1" parent="1">
          <mxGeometry x="360" y="160" width="80" height="80" as="geometry" />
        </mxCell>
        <mxCell id="R5GsELpKaSpSeacHpWFY-19" style="edgeStyle=none;rounded=0;orthogonalLoop=1;jettySize=auto;html=1;exitX=0.5;exitY=1;exitDx=0;exitDy=0;entryX=0;entryY=0;entryDx=0;entryDy=0;fontSize=32;fontColor=#FF0000;strokeWidth=4;strokeColor=#FF0000;" edge="1" parent="1" source="R5GsELpKaSpSeacHpWFY-4" target="R5GsELpKaSpSeacHpWFY-18">
          <mxGeometry relative="1" as="geometry" />
        </mxCell>
        <mxCell id="R5GsELpKaSpSeacHpWFY-26" value="1" style="edgeLabel;html=1;align=center;verticalAlign=middle;resizable=0;points=[];fontSize=32;fontColor=#FF0000;" vertex="1" connectable="0" parent="R5GsELpKaSpSeacHpWFY-19">
          <mxGeometry x="0.1647" y="2" relative="1" as="geometry">
            <mxPoint as="offset" />
          </mxGeometry>
        </mxCell>
        <mxCell id="R5GsELpKaSpSeacHpWFY-4" value="&lt;font style=&quot;font-size: 42px&quot;&gt;d&lt;/font&gt;" style="ellipse;whiteSpace=wrap;html=1;aspect=fixed;" vertex="1" parent="1">
          <mxGeometry x="60" y="360" width="80" height="80" as="geometry" />
        </mxCell>
        <mxCell id="R5GsELpKaSpSeacHpWFY-20" style="edgeStyle=none;rounded=0;orthogonalLoop=1;jettySize=auto;html=1;exitX=0.5;exitY=1;exitDx=0;exitDy=0;entryX=1;entryY=0;entryDx=0;entryDy=0;fontSize=32;fontColor=#FF0000;strokeWidth=4;strokeColor=#FF0000;" edge="1" parent="1" source="R5GsELpKaSpSeacHpWFY-5" target="R5GsELpKaSpSeacHpWFY-18">
          <mxGeometry relative="1" as="geometry" />
        </mxCell>
        <mxCell id="R5GsELpKaSpSeacHpWFY-25" value="&lt;font color=&quot;#ff0000&quot;&gt;1&lt;/font&gt;" style="edgeLabel;html=1;align=center;verticalAlign=middle;resizable=0;points=[];fontSize=32;fontColor=#66B2FF;" vertex="1" connectable="0" parent="R5GsELpKaSpSeacHpWFY-20">
          <mxGeometry x="0.2147" y="1" relative="1" as="geometry">
            <mxPoint as="offset" />
          </mxGeometry>
        </mxCell>
        <mxCell id="R5GsELpKaSpSeacHpWFY-5" value="&lt;font style=&quot;font-size: 42px&quot;&gt;e&lt;/font&gt;" style="ellipse;whiteSpace=wrap;html=1;aspect=fixed;" vertex="1" parent="1">
          <mxGeometry x="260" y="360" width="80" height="80" as="geometry" />
        </mxCell>
        <mxCell id="R5GsELpKaSpSeacHpWFY-10" value="" style="ellipse;whiteSpace=wrap;html=1;fillColor=none;dashed=1;strokeColor=#A680B8;strokeWidth=2;" vertex="1" parent="1">
          <mxGeometry x="-80" y="120" width="560" height="160" as="geometry" />
        </mxCell>
        <mxCell id="R5GsELpKaSpSeacHpWFY-11" value="&lt;font style=&quot;font-size: 32px&quot;&gt;V&lt;sub&gt;1&lt;/sub&gt;&amp;nbsp;:= F&lt;/font&gt;" style="rounded=1;whiteSpace=wrap;html=1;dashed=1;strokeColor=none;strokeWidth=2;fillColor=none;" vertex="1" parent="1">
          <mxGeometry x="-210" y="170" width="120" height="60" as="geometry" />
        </mxCell>
        <mxCell id="R5GsELpKaSpSeacHpWFY-12" value="" style="ellipse;whiteSpace=wrap;html=1;fillColor=none;dashed=1;strokeColor=#A680B8;strokeWidth=2;" vertex="1" parent="1">
          <mxGeometry x="-80" y="320" width="560" height="160" as="geometry" />
        </mxCell>
        <mxCell id="R5GsELpKaSpSeacHpWFY-13" value="&lt;font style=&quot;font-size: 32px&quot;&gt;V&lt;sub&gt;2&lt;/sub&gt;&amp;nbsp;:= S&lt;/font&gt;" style="rounded=1;whiteSpace=wrap;html=1;dashed=1;strokeColor=none;strokeWidth=2;fillColor=none;" vertex="1" parent="1">
          <mxGeometry x="-210" y="370" width="120" height="60" as="geometry" />
        </mxCell>
        <mxCell id="R5GsELpKaSpSeacHpWFY-18" value="&lt;font style=&quot;font-size: 42px&quot; color=&quot;#ff0000&quot;&gt;t&lt;/font&gt;" style="ellipse;whiteSpace=wrap;html=1;aspect=fixed;" vertex="1" parent="1">
          <mxGeometry x="160" y="560" width="80" height="80" as="geometry" />
        </mxCell>
        <mxCell id="R5GsELpKaSpSeacHpWFY-22" style="edgeStyle=none;rounded=0;orthogonalLoop=1;jettySize=auto;html=1;exitX=0;exitY=1;exitDx=0;exitDy=0;fontSize=32;fontColor=#66B2FF;strokeColor=#66B2FF;strokeWidth=4;entryX=1;entryY=0;entryDx=0;entryDy=0;" edge="1" parent="1" source="R5GsELpKaSpSeacHpWFY-21" target="R5GsELpKaSpSeacHpWFY-1">
          <mxGeometry relative="1" as="geometry">
            <mxPoint y="70" as="targetPoint" />
          </mxGeometry>
        </mxCell>
        <mxCell id="R5GsELpKaSpSeacHpWFY-27" value="&lt;font color=&quot;#66b2ff&quot;&gt;1&lt;/font&gt;" style="edgeLabel;html=1;align=center;verticalAlign=middle;resizable=0;points=[];fontSize=32;fontColor=#FF0000;" vertex="1" connectable="0" parent="R5GsELpKaSpSeacHpWFY-22">
          <mxGeometry x="-0.1882" y="-1" relative="1" as="geometry">
            <mxPoint as="offset" />
          </mxGeometry>
        </mxCell>
        <mxCell id="R5GsELpKaSpSeacHpWFY-23" style="edgeStyle=none;rounded=0;orthogonalLoop=1;jettySize=auto;html=1;exitX=0.5;exitY=1;exitDx=0;exitDy=0;entryX=0.5;entryY=0;entryDx=0;entryDy=0;fontSize=32;fontColor=#66B2FF;strokeColor=#66B2FF;strokeWidth=4;" edge="1" parent="1" source="R5GsELpKaSpSeacHpWFY-21" target="R5GsELpKaSpSeacHpWFY-2">
          <mxGeometry relative="1" as="geometry" />
        </mxCell>
        <mxCell id="R5GsELpKaSpSeacHpWFY-28" value="1" style="edgeLabel;html=1;align=center;verticalAlign=middle;resizable=0;points=[];fontSize=32;fontColor=#66B2FF;" vertex="1" connectable="0" parent="R5GsELpKaSpSeacHpWFY-23">
          <mxGeometry x="-0.5389" y="2" relative="1" as="geometry">
            <mxPoint as="offset" />
          </mxGeometry>
        </mxCell>
        <mxCell id="R5GsELpKaSpSeacHpWFY-24" style="edgeStyle=none;rounded=0;orthogonalLoop=1;jettySize=auto;html=1;exitX=1;exitY=1;exitDx=0;exitDy=0;fontSize=32;fontColor=#66B2FF;strokeColor=#66B2FF;strokeWidth=4;" edge="1" parent="1" source="R5GsELpKaSpSeacHpWFY-21" target="R5GsELpKaSpSeacHpWFY-3">
          <mxGeometry relative="1" as="geometry" />
        </mxCell>
        <mxCell id="R5GsELpKaSpSeacHpWFY-29" value="1" style="edgeLabel;html=1;align=center;verticalAlign=middle;resizable=0;points=[];fontSize=32;fontColor=#66B2FF;" vertex="1" connectable="0" parent="R5GsELpKaSpSeacHpWFY-24">
          <mxGeometry x="-0.1929" y="1" relative="1" as="geometry">
            <mxPoint as="offset" />
          </mxGeometry>
        </mxCell>
        <mxCell id="R5GsELpKaSpSeacHpWFY-21" value="&lt;font style=&quot;font-size: 42px&quot; color=&quot;#66b2ff&quot;&gt;s&lt;/font&gt;" style="ellipse;whiteSpace=wrap;html=1;aspect=fixed;" vertex="1" parent="1">
          <mxGeometry x="160" y="-40" width="80" height="80" as="geometry" />
        </mxCell>
        <mxCell id="R5GsELpKaSpSeacHpWFY-30" value="&lt;font color=&quot;#ff9933&quot;&gt;1&lt;/font&gt;" style="text;html=1;align=center;verticalAlign=middle;resizable=0;points=[];autosize=1;strokeColor=none;fillColor=none;fontSize=32;fontColor=#66B2FF;" vertex="1" parent="1">
          <mxGeometry x="70" y="40" width="30" height="40" as="geometry" />
        </mxCell>
        <mxCell id="R5GsELpKaSpSeacHpWFY-31" value="&lt;font color=&quot;#ff9933&quot;&gt;1&lt;/font&gt;" style="text;html=1;align=center;verticalAlign=middle;resizable=0;points=[];autosize=1;strokeColor=none;fillColor=none;fontSize=32;fontColor=#66B2FF;" vertex="1" parent="1">
          <mxGeometry x="-15" y="280" width="30" height="40" as="geometry" />
        </mxCell>
        <mxCell id="R5GsELpKaSpSeacHpWFY-32" value="&lt;font color=&quot;#ff9933&quot;&gt;1&lt;/font&gt;" style="text;html=1;align=center;verticalAlign=middle;resizable=0;points=[];autosize=1;strokeColor=none;fillColor=none;fontSize=32;fontColor=#66B2FF;" vertex="1" parent="1">
          <mxGeometry x="100" y="510" width="30" height="40" as="geometry" />
        </mxCell>
        <mxCell id="R5GsELpKaSpSeacHpWFY-33" value="&lt;font color=&quot;#ff9933&quot;&gt;1&lt;/font&gt;" style="text;html=1;align=center;verticalAlign=middle;resizable=0;points=[];autosize=1;strokeColor=none;fillColor=none;fontSize=32;fontColor=#66B2FF;" vertex="1" parent="1">
          <mxGeometry x="280" y="510" width="30" height="40" as="geometry" />
        </mxCell>
        <mxCell id="R5GsELpKaSpSeacHpWFY-34" value="&lt;font color=&quot;#ff9933&quot;&gt;1&lt;/font&gt;" style="text;html=1;align=center;verticalAlign=middle;resizable=0;points=[];autosize=1;strokeColor=none;fillColor=none;fontSize=32;fontColor=#66B2FF;" vertex="1" parent="1">
          <mxGeometry x="200" y="250" width="30" height="40" as="geometry" />
        </mxCell>
        <mxCell id="R5GsELpKaSpSeacHpWFY-35" value="&lt;font color=&quot;#ff9933&quot;&gt;1&lt;/font&gt;" style="text;html=1;align=center;verticalAlign=middle;resizable=0;points=[];autosize=1;strokeColor=none;fillColor=none;fontSize=32;fontColor=#66B2FF;" vertex="1" parent="1">
          <mxGeometry x="160" y="80" width="30" height="40" as="geometry" />
        </mxCell>
        <mxCell id="R5GsELpKaSpSeacHpWFY-36" value="Fluss f" style="text;html=1;align=center;verticalAlign=middle;resizable=0;points=[];autosize=1;strokeColor=none;fillColor=none;fontSize=32;fontColor=#FF9933;" vertex="1" parent="1">
          <mxGeometry x="-60" y="40" width="110" height="40" as="geometry" />
        </mxCell>
      </root>
    </mxGraphModel>
  </diagram>
</mxfile>
